# xmcd
#
# Track frame offsets:
#	150
#	34700
#	62190
#	84735
#	121535
#	160595
#	192490
#
# Disc length: 3162 seconds
#
# Revision: 2
# Processed by: cddbd v1.5.1PL2 Copyright (c) Steve Scherf et al.
# Submitted via: EasyCDDAExtractor 8.0.2.1
#
DISCID=520c5807
DTITLE=Deep Purple - Mittelhessen Arena Wetzlar 15-02-06 Disc 2
DYEAR=2006
DGENRE=Hard Rock
TTITLE0=Perfect Strangers
TTITLE1=Kiss Tomorrow Goodbye
TTITLE2=Space Truckin
TTITLE3=Highway Star
TTITLE4=Smoke On The Water
TTITLE5=Speed King
TTITLE6=Black Night
EXTD=
EXTT0=
EXTT1=
EXTT2=
EXTT3=
EXTT4=
EXTT5=
EXTT6=
PLAYORDER=
